<svg width="40" height="40" viewBox="0 0 40 40" fill="none" xmlns="http://www.w3.org/2000/svg">
<g filter="url(#filter0_d_10404:35)">
<path d="M29.8099 24.4214C31.825 22.0771 32.9348 19.0864 32.9348 16.0001C32.9348 8.86713 27.1317 3.06396 19.9987 3.06396C12.8657 3.06396 7.0625 8.86713 7.0625 16.0001C7.0625 23.1331 12.8657 28.9363 19.9987 28.9363C23.0849 28.9363 26.0756 27.8265 28.4199 25.8113C28.6312 25.6297 28.9482 25.6516 29.1331 25.8584C29.3834 25.6263 29.6249 25.3848 29.857 25.1346C29.6501 24.9496 29.6282 24.6326 29.8099 24.4214ZM19.488 4.59588C19.488 4.31387 19.7167 4.08524 19.9987 4.08524C20.2807 4.08524 20.5093 4.31387 20.5093 4.59588V6.63843C20.5093 6.92044 20.2807 7.14907 19.9987 7.14907C19.7167 7.14907 19.488 6.92044 19.488 6.63843V4.59588ZM10.637 16.5108H8.59441C8.31241 16.5108 8.08378 16.2821 8.08378 16.0001C8.08378 15.7181 8.31241 15.4895 8.59441 15.4895H10.637C10.919 15.4895 11.1476 15.7181 11.1476 16.0001C11.1476 16.2821 10.919 16.5108 10.637 16.5108ZM20.5093 27.4044C20.5093 27.6864 20.2807 27.915 19.9987 27.915C19.7167 27.915 19.488 27.6864 19.488 27.4044V25.3618C19.488 25.0798 19.7167 24.8512 19.9987 24.8512C20.2807 24.8512 20.5093 25.0798 20.5093 25.3618V27.4044ZM28.4238 9.74148L21.8427 16.3226C21.6893 17.2018 20.9211 17.8725 19.9987 17.8725C19.6676 17.8725 19.3566 17.7858 19.0865 17.6344L13.7431 22.9778C13.6435 23.0775 13.5127 23.1274 13.3821 23.1274C13.2514 23.1274 13.1207 23.0776 13.021 22.9778C12.8216 22.7784 12.8216 22.4551 13.021 22.2557L18.3644 16.9123C18.2634 16.732 18.1915 16.5334 18.1547 16.3227L13.74 11.9079C13.5406 11.7085 13.5406 11.3852 13.74 11.1858L15.1843 9.74155C15.3837 9.54213 15.7071 9.54213 15.9064 9.74155L20.3211 14.1563C20.3428 14.16 20.3644 14.1638 20.3857 14.1684L21.0816 13.4726C20.8823 13.2732 20.8823 12.95 21.0818 12.7506L26.2573 7.57508C26.3531 7.47935 26.483 7.4255 26.6184 7.4255C26.7538 7.4255 26.8837 7.47928 26.9794 7.57508L28.4237 9.01937C28.6232 9.21872 28.6232 9.54206 28.4238 9.74148ZM29.3604 16.5108C29.0784 16.5108 28.8497 16.2821 28.8497 16.0001C28.8497 15.7181 29.0784 15.4895 29.3604 15.4895H31.4029C31.6849 15.4895 31.9136 15.7181 31.9136 16.0001C31.9136 16.2821 31.6849 16.5108 31.4029 16.5108H29.3604Z" fill="white"/>
<path d="M21.6377 15.088L27.3453 9.38038L26.6231 8.6582L21.8087 13.4727C21.6093 13.6721 21.2859 13.6721 21.0866 13.4727C21.0864 13.4725 20.3906 14.1683 20.3906 14.1683C20.9261 14.2813 21.3777 14.624 21.6377 15.088Z" fill="#C7C7C7"/>
<path d="M20.0022 1.02148C11.7428 1.02148 5.02344 7.74094 5.02344 16.0002C5.02344 24.2595 11.7428 30.9789 20.0022 30.9789C28.2615 30.9789 34.9809 24.2595 34.9809 16.0002C34.9809 7.74094 28.2615 1.02148 20.0022 1.02148ZM30.5878 25.0872C30.404 25.301 30.0817 25.3254 29.8677 25.1415C29.8651 25.1393 29.8629 25.1368 29.8604 25.1346C29.6283 25.3849 29.3869 25.6264 29.1365 25.8584C29.1388 25.8609 29.1412 25.8631 29.1435 25.8657C29.3273 26.0795 29.303 26.4019 29.0891 26.5858C26.5596 28.7602 23.3325 29.9577 20.0022 29.9577C12.306 29.9577 6.04471 23.6964 6.04471 16.0002C6.04471 8.30407 12.306 2.04276 20.0022 2.04276C27.6984 2.04276 33.9596 8.30407 33.9596 16.0002C33.9596 19.3306 32.7622 22.5577 30.5878 25.0872Z" fill="#FC9B09"/>
<path d="M31.3137 4.6863C28.2917 1.66427 24.2738 0 20 0C15.7262 0 11.7083 1.66427 8.6863 4.6863C5.66427 7.70832 4 11.7262 4 16C4 20.2738 5.66427 24.2917 8.6863 27.3137C11.7083 30.3357 15.7262 32 20 32C24.2738 32 28.2917 30.3357 31.3137 27.3137C34.3357 24.2917 36 20.2738 36 16C36 11.7262 34.3357 7.70832 31.3137 4.6863ZM20 30.9787C11.7407 30.9787 5.02128 24.2593 5.02128 16C5.02128 7.74073 11.7407 1.02128 20 1.02128C28.2593 1.02128 34.9787 7.74073 34.9787 16C34.9787 24.2593 28.2593 30.9787 20 30.9787Z" fill="#37373F"/>
<path d="M31.9154 15.9999C31.9154 15.7179 31.6868 15.4893 31.4048 15.4893H29.3622C29.0802 15.4893 28.8516 15.7179 28.8516 15.9999C28.8516 16.2819 29.0802 16.5105 29.3622 16.5105H31.4048C31.6868 16.5105 31.9154 16.2819 31.9154 15.9999Z" fill="#082947"/>
<path d="M26.983 7.57488C26.8872 7.47915 26.7573 7.42529 26.6219 7.42529C26.4865 7.42529 26.3566 7.47908 26.2609 7.57488L21.0853 12.7504C20.8859 12.9498 20.8859 13.273 21.0851 13.4724C21.2847 13.672 21.608 13.672 21.8074 13.4726L26.6218 8.65811L27.344 9.38029L21.6364 15.0879C21.3764 14.6239 20.9248 14.2812 20.3893 14.1681C20.3679 14.1636 20.3462 14.1598 20.3247 14.156L15.9099 9.74128C15.7105 9.54185 15.3872 9.54185 15.1878 9.74128L13.7435 11.1856C13.5441 11.385 13.5441 11.7083 13.7435 11.9077L18.1583 16.3224C18.195 16.533 18.2669 16.7317 18.368 16.9121L13.0246 22.2555C12.8251 22.4549 12.8251 22.7782 13.0246 22.9776C13.1242 23.0772 13.255 23.1272 13.3856 23.1272C13.5163 23.1272 13.647 23.0773 13.7467 22.9776L19.0901 17.6342C19.3602 17.7855 19.6712 17.8722 20.0022 17.8722C20.9246 17.8722 21.6928 17.2016 21.8462 16.3224L28.4273 9.74128C28.6267 9.54185 28.6267 9.21852 28.4273 9.01917L26.983 7.57488ZM19.0901 14.3657C18.7878 14.535 18.5372 14.7856 18.3679 15.0879L14.8268 11.5468L15.549 10.8246L19.0901 14.3657ZM19.1511 16C19.1511 15.5307 19.5329 15.1489 20.0022 15.1489C20.4715 15.1489 20.8533 15.5307 20.8533 16C20.8533 16.4693 20.4715 16.8511 20.0022 16.8511C19.5329 16.8511 19.1511 16.4693 19.1511 16Z" fill="#37373F"/>
<path d="M20.0043 2.04248C12.3081 2.04248 6.04688 8.30379 6.04688 15.9999C6.04688 23.6961 12.3081 29.9574 20.0043 29.9574C23.3347 29.9574 26.5618 28.76 29.0913 26.5856C29.3052 26.4018 29.3295 26.0793 29.1456 25.8655C29.1435 25.8629 29.1409 25.8607 29.1387 25.8582C28.9538 25.6514 28.6368 25.6295 28.4255 25.8111C26.0813 27.8263 23.0905 28.9361 20.0043 28.9361C12.8713 28.9361 7.06815 23.1329 7.06815 15.9999C7.06815 8.86692 12.8713 3.06376 20.0043 3.06376C27.1373 3.06376 32.9405 8.86692 32.9405 15.9999C32.9405 19.0862 31.8307 22.0769 29.8155 24.4212C29.6339 24.6324 29.6558 24.9494 29.8626 25.1344C29.8651 25.1366 29.8673 25.1391 29.8698 25.1413C30.0838 25.3251 30.4062 25.3008 30.59 25.087C32.7644 22.5574 33.9618 19.3303 33.9618 15.9999C33.9618 8.30379 27.7005 2.04248 20.0043 2.04248Z" fill="#37373F"/>
</g>
<defs>
<filter id="filter0_d_10404:35" x="0" y="0" width="40" height="40" filterUnits="userSpaceOnUse" color-interpolation-filters="sRGB">
<feFlood flood-opacity="0" result="BackgroundImageFix"/>
<feColorMatrix in="SourceAlpha" type="matrix" values="0 0 0 0 0 0 0 0 0 0 0 0 0 0 0 0 0 0 127 0" result="hardAlpha"/>
<feOffset dy="4"/>
<feGaussianBlur stdDeviation="2"/>
<feComposite in2="hardAlpha" operator="out"/>
<feColorMatrix type="matrix" values="0 0 0 0 0 0 0 0 0 0 0 0 0 0 0 0 0 0 0.25 0"/>
<feBlend mode="normal" in2="BackgroundImageFix" result="effect1_dropShadow_10404:35"/>
<feBlend mode="normal" in="SourceGraphic" in2="effect1_dropShadow_10404:35" result="shape"/>
</filter>
</defs>
</svg>
